<mxfile host="app.diagrams.net" modified="2024-04-12T18:43:37.992Z" agent="Mozilla/5.0 (Windows NT 10.0; Win64; x64) AppleWebKit/537.36 (KHTML, like Gecko) Chrome/123.0.0.0 Safari/537.36" etag="4bPoTi9TAhL_ivRbFmcC" version="24.2.3" type="device">
  <diagram name="Page-1" id="hC_dS3WU4z2EBYXkW7_2">
    <mxGraphModel dx="1050" dy="522" grid="0" gridSize="10" guides="1" tooltips="1" connect="1" arrows="1" fold="1" page="1" pageScale="1" pageWidth="850" pageHeight="1100" math="0" shadow="0">
      <root>
        <mxCell id="0" />
        <mxCell id="1" parent="0" />
        <mxCell id="qhe81xx8y5uv3vRhweT2-10" style="edgeStyle=orthogonalEdgeStyle;rounded=0;orthogonalLoop=1;jettySize=auto;html=1;exitX=1;exitY=0.5;exitDx=0;exitDy=0;fontSize=14;fontColor=#007FFF;" parent="1" source="ym1fQNykqVUtooWXVhN--1" target="ym1fQNykqVUtooWXVhN--6" edge="1">
          <mxGeometry relative="1" as="geometry" />
        </mxCell>
        <mxCell id="qhe81xx8y5uv3vRhweT2-11" value="User Info" style="edgeLabel;html=1;align=center;verticalAlign=middle;resizable=0;points=[];fontSize=14;fontColor=#007FFF;" parent="qhe81xx8y5uv3vRhweT2-10" vertex="1" connectable="0">
          <mxGeometry x="-0.1411" y="-5" relative="1" as="geometry">
            <mxPoint y="-5" as="offset" />
          </mxGeometry>
        </mxCell>
        <mxCell id="qhe81xx8y5uv3vRhweT2-20" style="edgeStyle=orthogonalEdgeStyle;rounded=0;orthogonalLoop=1;jettySize=auto;html=1;exitX=0.5;exitY=1;exitDx=0;exitDy=0;entryX=0.75;entryY=0;entryDx=0;entryDy=0;fontSize=14;fontColor=#007FFF;" parent="1" source="ym1fQNykqVUtooWXVhN--1" target="ym1fQNykqVUtooWXVhN--7" edge="1">
          <mxGeometry relative="1" as="geometry">
            <Array as="points">
              <mxPoint x="110" y="150" />
              <mxPoint x="450" y="150" />
            </Array>
          </mxGeometry>
        </mxCell>
        <mxCell id="qhe81xx8y5uv3vRhweT2-21" value="id/Password" style="edgeLabel;html=1;align=center;verticalAlign=middle;resizable=0;points=[];fontSize=14;fontColor=#007FFF;" parent="qhe81xx8y5uv3vRhweT2-20" vertex="1" connectable="0">
          <mxGeometry x="-0.0835" y="-1" relative="1" as="geometry">
            <mxPoint as="offset" />
          </mxGeometry>
        </mxCell>
        <mxCell id="qhe81xx8y5uv3vRhweT2-23" style="edgeStyle=orthogonalEdgeStyle;rounded=0;orthogonalLoop=1;jettySize=auto;html=1;exitX=0;exitY=0.5;exitDx=0;exitDy=0;entryX=0;entryY=0.5;entryDx=0;entryDy=0;fontSize=14;fontColor=#007FFF;" parent="1" source="ym1fQNykqVUtooWXVhN--1" target="ym1fQNykqVUtooWXVhN--8" edge="1">
          <mxGeometry relative="1" as="geometry" />
        </mxCell>
        <mxCell id="qhe81xx8y5uv3vRhweT2-24" value="Project" style="edgeLabel;html=1;align=center;verticalAlign=middle;resizable=0;points=[];fontSize=14;fontColor=#007FFF;" parent="qhe81xx8y5uv3vRhweT2-23" vertex="1" connectable="0">
          <mxGeometry x="-0.578" y="-1" relative="1" as="geometry">
            <mxPoint y="-28" as="offset" />
          </mxGeometry>
        </mxCell>
        <mxCell id="ym1fQNykqVUtooWXVhN--1" value="User" style="html=1;dashed=0;whiteSpace=wrap;labelBackgroundColor=none;rounded=0;fontSize=14;fillColor=#ffe6cc;strokeColor=#d79b00;" parent="1" vertex="1">
          <mxGeometry x="60" y="80" width="100" height="50" as="geometry" />
        </mxCell>
        <mxCell id="qhe81xx8y5uv3vRhweT2-14" style="edgeStyle=orthogonalEdgeStyle;rounded=0;orthogonalLoop=1;jettySize=auto;html=1;exitX=0.5;exitY=0;exitDx=0;exitDy=0;entryX=0.5;entryY=1;entryDx=0;entryDy=0;fontSize=14;fontColor=#007FFF;" parent="1" source="ym1fQNykqVUtooWXVhN--2" target="ym1fQNykqVUtooWXVhN--6" edge="1">
          <mxGeometry relative="1" as="geometry" />
        </mxCell>
        <mxCell id="qhe81xx8y5uv3vRhweT2-15" value="User Info" style="edgeLabel;html=1;align=center;verticalAlign=middle;resizable=0;points=[];fontSize=14;fontColor=#007FFF;" parent="qhe81xx8y5uv3vRhweT2-14" vertex="1" connectable="0">
          <mxGeometry x="-0.0038" y="-2" relative="1" as="geometry">
            <mxPoint as="offset" />
          </mxGeometry>
        </mxCell>
        <mxCell id="qhe81xx8y5uv3vRhweT2-17" style="edgeStyle=orthogonalEdgeStyle;rounded=0;orthogonalLoop=1;jettySize=auto;html=1;exitX=1;exitY=0.5;exitDx=0;exitDy=0;entryX=0;entryY=0.5;entryDx=0;entryDy=0;fontSize=14;fontColor=#007FFF;" parent="1" source="ym1fQNykqVUtooWXVhN--2" target="ym1fQNykqVUtooWXVhN--7" edge="1">
          <mxGeometry relative="1" as="geometry" />
        </mxCell>
        <mxCell id="qhe81xx8y5uv3vRhweT2-18" value="Id/Password" style="edgeLabel;html=1;align=center;verticalAlign=middle;resizable=0;points=[];fontSize=14;fontColor=#007FFF;" parent="qhe81xx8y5uv3vRhweT2-17" vertex="1" connectable="0">
          <mxGeometry x="0.014" y="3" relative="1" as="geometry">
            <mxPoint as="offset" />
          </mxGeometry>
        </mxCell>
        <mxCell id="ym1fQNykqVUtooWXVhN--2" value="Investor" style="html=1;dashed=0;whiteSpace=wrap;labelBackgroundColor=none;rounded=0;fontSize=14;fillColor=#ffe6cc;strokeColor=#d79b00;" parent="1" vertex="1">
          <mxGeometry x="60" y="200" width="100" height="50" as="geometry" />
        </mxCell>
        <mxCell id="qhe81xx8y5uv3vRhweT2-22" style="edgeStyle=orthogonalEdgeStyle;rounded=0;orthogonalLoop=1;jettySize=auto;html=1;exitX=0.5;exitY=1;exitDx=0;exitDy=0;entryX=1;entryY=0.5;entryDx=0;entryDy=0;fontSize=14;fontColor=#007FFF;" parent="1" source="ym1fQNykqVUtooWXVhN--3" target="ym1fQNykqVUtooWXVhN--7" edge="1">
          <mxGeometry relative="1" as="geometry" />
        </mxCell>
        <mxCell id="qhe81xx8y5uv3vRhweT2-34" style="edgeStyle=orthogonalEdgeStyle;rounded=0;orthogonalLoop=1;jettySize=auto;html=1;exitX=0.25;exitY=1;exitDx=0;exitDy=0;fontSize=14;fontColor=#007FFF;" parent="1" source="ym1fQNykqVUtooWXVhN--3" target="qhe81xx8y5uv3vRhweT2-8" edge="1">
          <mxGeometry relative="1" as="geometry" />
        </mxCell>
        <mxCell id="qhe81xx8y5uv3vRhweT2-35" value="User info" style="edgeLabel;html=1;align=center;verticalAlign=middle;resizable=0;points=[];fontSize=14;fontColor=#007FFF;" parent="qhe81xx8y5uv3vRhweT2-34" vertex="1" connectable="0">
          <mxGeometry x="0.0222" relative="1" as="geometry">
            <mxPoint as="offset" />
          </mxGeometry>
        </mxCell>
        <mxCell id="ym1fQNykqVUtooWXVhN--3" value="User Database" style="html=1;dashed=0;whiteSpace=wrap;shape=partialRectangle;right=0;labelBackgroundColor=none;rounded=1;fontSize=14;fontColor=#333333;fillColor=#f5f5f5;strokeColor=#666666;" parent="1" vertex="1">
          <mxGeometry x="700" y="110" width="100" height="60" as="geometry" />
        </mxCell>
        <mxCell id="qhe81xx8y5uv3vRhweT2-12" style="edgeStyle=orthogonalEdgeStyle;rounded=0;orthogonalLoop=1;jettySize=auto;html=1;exitX=1;exitY=0.25;exitDx=0;exitDy=0;entryX=0.5;entryY=0;entryDx=0;entryDy=0;fontSize=14;fontColor=#007FFF;" parent="1" source="ym1fQNykqVUtooWXVhN--6" target="ym1fQNykqVUtooWXVhN--3" edge="1">
          <mxGeometry relative="1" as="geometry" />
        </mxCell>
        <mxCell id="qhe81xx8y5uv3vRhweT2-13" value="Update Info" style="edgeLabel;html=1;align=center;verticalAlign=middle;resizable=0;points=[];fontSize=14;fontColor=#007FFF;" parent="qhe81xx8y5uv3vRhweT2-12" vertex="1" connectable="0">
          <mxGeometry x="-0.1942" y="2" relative="1" as="geometry">
            <mxPoint as="offset" />
          </mxGeometry>
        </mxCell>
        <mxCell id="ym1fQNykqVUtooWXVhN--6" value="1. Register" style="html=1;dashed=0;whiteSpace=wrap;rounded=1;fontSize=14;fillColor=#dae8fc;strokeColor=#6c8ebf;" parent="1" vertex="1">
          <mxGeometry x="375" y="80" width="100" height="50" as="geometry" />
        </mxCell>
        <mxCell id="ym1fQNykqVUtooWXVhN--7" value="2. Login&amp;nbsp;" style="html=1;dashed=0;whiteSpace=wrap;rounded=1;fontSize=14;fillColor=#dae8fc;strokeColor=#6c8ebf;" parent="1" vertex="1">
          <mxGeometry x="375" y="200" width="100" height="50" as="geometry" />
        </mxCell>
        <mxCell id="qhe81xx8y5uv3vRhweT2-25" style="edgeStyle=orthogonalEdgeStyle;rounded=0;orthogonalLoop=1;jettySize=auto;html=1;exitX=0;exitY=0.75;exitDx=0;exitDy=0;entryX=0.5;entryY=0;entryDx=0;entryDy=0;fontSize=14;fontColor=#007FFF;" parent="1" source="ym1fQNykqVUtooWXVhN--8" target="qhe81xx8y5uv3vRhweT2-1" edge="1">
          <mxGeometry relative="1" as="geometry" />
        </mxCell>
        <mxCell id="ym1fQNykqVUtooWXVhN--8" value="3. Create Project" style="html=1;dashed=0;whiteSpace=wrap;rounded=1;fontSize=14;fillColor=#dae8fc;strokeColor=#6c8ebf;" parent="1" vertex="1">
          <mxGeometry x="375" y="310" width="100" height="50" as="geometry" />
        </mxCell>
        <mxCell id="qhe81xx8y5uv3vRhweT2-28" style="edgeStyle=orthogonalEdgeStyle;rounded=0;orthogonalLoop=1;jettySize=auto;html=1;exitX=1;exitY=0.5;exitDx=0;exitDy=0;entryX=0.25;entryY=0;entryDx=0;entryDy=0;fontSize=14;fontColor=#007FFF;" parent="1" source="ym1fQNykqVUtooWXVhN--9" target="qhe81xx8y5uv3vRhweT2-7" edge="1">
          <mxGeometry relative="1" as="geometry" />
        </mxCell>
        <mxCell id="qhe81xx8y5uv3vRhweT2-29" value="New Project" style="edgeLabel;html=1;align=center;verticalAlign=middle;resizable=0;points=[];fontSize=14;fontColor=#007FFF;" parent="qhe81xx8y5uv3vRhweT2-28" vertex="1" connectable="0">
          <mxGeometry x="-0.2032" y="-1" relative="1" as="geometry">
            <mxPoint as="offset" />
          </mxGeometry>
        </mxCell>
        <mxCell id="ym1fQNykqVUtooWXVhN--9" value="4. View new Project" style="html=1;dashed=0;whiteSpace=wrap;rounded=1;fontSize=14;fillColor=#dae8fc;strokeColor=#6c8ebf;" parent="1" vertex="1">
          <mxGeometry x="375" y="410" width="100" height="50" as="geometry" />
        </mxCell>
        <mxCell id="qhe81xx8y5uv3vRhweT2-39" style="edgeStyle=orthogonalEdgeStyle;rounded=0;orthogonalLoop=1;jettySize=auto;html=1;exitX=0;exitY=0.5;exitDx=0;exitDy=0;entryX=0.5;entryY=1;entryDx=0;entryDy=0;fontSize=14;fontColor=#007FFF;" parent="1" source="ym1fQNykqVUtooWXVhN--10" target="qhe81xx8y5uv3vRhweT2-1" edge="1">
          <mxGeometry relative="1" as="geometry" />
        </mxCell>
        <mxCell id="qhe81xx8y5uv3vRhweT2-40" value="Project Status" style="edgeLabel;html=1;align=center;verticalAlign=middle;resizable=0;points=[];fontSize=14;fontColor=#007FFF;" parent="qhe81xx8y5uv3vRhweT2-39" vertex="1" connectable="0">
          <mxGeometry x="-0.3213" y="3" relative="1" as="geometry">
            <mxPoint x="-1" as="offset" />
          </mxGeometry>
        </mxCell>
        <mxCell id="ym1fQNykqVUtooWXVhN--10" value="5. Approve/ Reject Project" style="html=1;dashed=0;whiteSpace=wrap;rounded=1;fontSize=14;fillColor=#dae8fc;strokeColor=#6c8ebf;" parent="1" vertex="1">
          <mxGeometry x="375" y="520" width="100" height="50" as="geometry" />
        </mxCell>
        <mxCell id="qhe81xx8y5uv3vRhweT2-43" style="edgeStyle=orthogonalEdgeStyle;rounded=0;orthogonalLoop=1;jettySize=auto;html=1;exitX=0;exitY=0.5;exitDx=0;exitDy=0;entryX=0.5;entryY=0;entryDx=0;entryDy=0;fontSize=14;fontColor=#007FFF;" parent="1" source="ym1fQNykqVUtooWXVhN--11" target="qhe81xx8y5uv3vRhweT2-3" edge="1">
          <mxGeometry relative="1" as="geometry" />
        </mxCell>
        <mxCell id="qhe81xx8y5uv3vRhweT2-44" value="Project Details" style="edgeLabel;html=1;align=center;verticalAlign=middle;resizable=0;points=[];fontSize=14;fontColor=#007FFF;" parent="qhe81xx8y5uv3vRhweT2-43" vertex="1" connectable="0">
          <mxGeometry x="-0.0816" relative="1" as="geometry">
            <mxPoint as="offset" />
          </mxGeometry>
        </mxCell>
        <mxCell id="ym1fQNykqVUtooWXVhN--11" value="6. View Projects" style="html=1;dashed=0;whiteSpace=wrap;rounded=1;fontSize=14;fillColor=#dae8fc;strokeColor=#6c8ebf;" parent="1" vertex="1">
          <mxGeometry x="375" y="630" width="100" height="50" as="geometry" />
        </mxCell>
        <mxCell id="qhe81xx8y5uv3vRhweT2-49" style="edgeStyle=orthogonalEdgeStyle;rounded=0;orthogonalLoop=1;jettySize=auto;html=1;exitX=1;exitY=0.5;exitDx=0;exitDy=0;entryX=0;entryY=0.25;entryDx=0;entryDy=0;fontSize=14;fontColor=#007FFF;" parent="1" source="ym1fQNykqVUtooWXVhN--12" target="qhe81xx8y5uv3vRhweT2-48" edge="1">
          <mxGeometry relative="1" as="geometry" />
        </mxCell>
        <mxCell id="ym1fQNykqVUtooWXVhN--12" value="7. Requried Money" style="html=1;dashed=0;whiteSpace=wrap;rounded=1;fontSize=14;fillColor=#dae8fc;strokeColor=#6c8ebf;" parent="1" vertex="1">
          <mxGeometry x="375" y="740" width="100" height="50" as="geometry" />
        </mxCell>
        <mxCell id="qhe81xx8y5uv3vRhweT2-62" style="edgeStyle=orthogonalEdgeStyle;rounded=0;orthogonalLoop=1;jettySize=auto;html=1;exitX=0;exitY=0.5;exitDx=0;exitDy=0;entryX=0.5;entryY=1;entryDx=0;entryDy=0;fontSize=14;fontColor=#007FFF;" parent="1" source="ym1fQNykqVUtooWXVhN--13" target="qhe81xx8y5uv3vRhweT2-3" edge="1">
          <mxGeometry relative="1" as="geometry" />
        </mxCell>
        <mxCell id="ym1fQNykqVUtooWXVhN--13" value="8. Status" style="html=1;dashed=0;whiteSpace=wrap;rounded=1;fontSize=14;fillColor=#dae8fc;strokeColor=#6c8ebf;" parent="1" vertex="1">
          <mxGeometry x="375" y="830" width="100" height="50" as="geometry" />
        </mxCell>
        <mxCell id="qhe81xx8y5uv3vRhweT2-26" style="edgeStyle=orthogonalEdgeStyle;rounded=0;orthogonalLoop=1;jettySize=auto;html=1;exitX=1;exitY=0.5;exitDx=0;exitDy=0;entryX=0;entryY=0.5;entryDx=0;entryDy=0;fontSize=14;fontColor=#007FFF;" parent="1" source="qhe81xx8y5uv3vRhweT2-1" target="ym1fQNykqVUtooWXVhN--9" edge="1">
          <mxGeometry relative="1" as="geometry" />
        </mxCell>
        <mxCell id="qhe81xx8y5uv3vRhweT2-27" value="New Project" style="edgeLabel;html=1;align=center;verticalAlign=middle;resizable=0;points=[];fontSize=14;fontColor=#007FFF;" parent="qhe81xx8y5uv3vRhweT2-26" vertex="1" connectable="0">
          <mxGeometry x="0.0186" y="-1" relative="1" as="geometry">
            <mxPoint as="offset" />
          </mxGeometry>
        </mxCell>
        <mxCell id="qhe81xx8y5uv3vRhweT2-41" style="edgeStyle=orthogonalEdgeStyle;rounded=0;orthogonalLoop=1;jettySize=auto;html=1;exitX=0.75;exitY=1;exitDx=0;exitDy=0;entryX=0;entryY=0.25;entryDx=0;entryDy=0;fontSize=14;fontColor=#007FFF;" parent="1" source="qhe81xx8y5uv3vRhweT2-1" target="ym1fQNykqVUtooWXVhN--11" edge="1">
          <mxGeometry relative="1" as="geometry">
            <Array as="points">
              <mxPoint x="180" y="420" />
              <mxPoint x="180" y="642" />
            </Array>
          </mxGeometry>
        </mxCell>
        <mxCell id="qhe81xx8y5uv3vRhweT2-42" value="Project Details" style="edgeLabel;html=1;align=center;verticalAlign=middle;resizable=0;points=[];fontSize=14;fontColor=#007FFF;" parent="qhe81xx8y5uv3vRhweT2-41" vertex="1" connectable="0">
          <mxGeometry x="-0.5289" relative="1" as="geometry">
            <mxPoint as="offset" />
          </mxGeometry>
        </mxCell>
        <mxCell id="qhe81xx8y5uv3vRhweT2-1" value="Project Record" style="html=1;dashed=0;whiteSpace=wrap;shape=partialRectangle;right=0;fontSize=14;fontColor=#333333;fillColor=#f5f5f5;strokeColor=#666666;" parent="1" vertex="1">
          <mxGeometry x="60" y="390" width="100" height="30" as="geometry" />
        </mxCell>
        <mxCell id="qhe81xx8y5uv3vRhweT2-60" style="edgeStyle=orthogonalEdgeStyle;rounded=0;orthogonalLoop=1;jettySize=auto;html=1;exitX=0.5;exitY=1;exitDx=0;exitDy=0;fontSize=14;fontColor=#007FFF;" parent="1" source="qhe81xx8y5uv3vRhweT2-2" target="qhe81xx8y5uv3vRhweT2-5" edge="1">
          <mxGeometry relative="1" as="geometry" />
        </mxCell>
        <mxCell id="qhe81xx8y5uv3vRhweT2-2" value="Project Record" style="html=1;dashed=0;whiteSpace=wrap;shape=partialRectangle;right=0;fontSize=14;fontColor=#333333;fillColor=#f5f5f5;strokeColor=#666666;" parent="1" vertex="1">
          <mxGeometry x="375" y="930" width="100" height="30" as="geometry" />
        </mxCell>
        <mxCell id="qhe81xx8y5uv3vRhweT2-45" style="edgeStyle=orthogonalEdgeStyle;rounded=0;orthogonalLoop=1;jettySize=auto;html=1;exitX=1;exitY=0.75;exitDx=0;exitDy=0;entryX=0;entryY=0.5;entryDx=0;entryDy=0;fontSize=14;fontColor=#007FFF;" parent="1" source="qhe81xx8y5uv3vRhweT2-3" target="ym1fQNykqVUtooWXVhN--12" edge="1">
          <mxGeometry relative="1" as="geometry" />
        </mxCell>
        <mxCell id="qhe81xx8y5uv3vRhweT2-54" style="edgeStyle=orthogonalEdgeStyle;rounded=0;orthogonalLoop=1;jettySize=auto;html=1;exitX=1;exitY=0.25;exitDx=0;exitDy=0;fontSize=14;fontColor=#007FFF;" parent="1" source="qhe81xx8y5uv3vRhweT2-3" edge="1">
          <mxGeometry relative="1" as="geometry">
            <mxPoint x="610" y="679.9999999999998" as="targetPoint" />
          </mxGeometry>
        </mxCell>
        <mxCell id="qhe81xx8y5uv3vRhweT2-57" value="Investment" style="edgeLabel;html=1;align=center;verticalAlign=middle;resizable=0;points=[];fontSize=14;fontColor=#007FFF;" parent="qhe81xx8y5uv3vRhweT2-54" vertex="1" connectable="0">
          <mxGeometry x="-0.3799" relative="1" as="geometry">
            <mxPoint as="offset" />
          </mxGeometry>
        </mxCell>
        <mxCell id="qhe81xx8y5uv3vRhweT2-3" value="Investor" style="html=1;dashed=0;whiteSpace=wrap;labelBackgroundColor=none;rounded=0;fontSize=14;fillColor=#ffe6cc;strokeColor=#d79b00;" parent="1" vertex="1">
          <mxGeometry x="80" y="710" width="100" height="50" as="geometry" />
        </mxCell>
        <mxCell id="qhe81xx8y5uv3vRhweT2-4" value="User" style="html=1;dashed=0;whiteSpace=wrap;labelBackgroundColor=none;rounded=0;fontSize=14;fillColor=#ffe6cc;strokeColor=#d79b00;" parent="1" vertex="1">
          <mxGeometry x="375" y="1020" width="100" height="50" as="geometry" />
        </mxCell>
        <mxCell id="qhe81xx8y5uv3vRhweT2-58" style="edgeStyle=orthogonalEdgeStyle;rounded=0;orthogonalLoop=1;jettySize=auto;html=1;exitX=0;exitY=0.5;exitDx=0;exitDy=0;entryX=1;entryY=0.5;entryDx=0;entryDy=0;fontSize=14;fontColor=#007FFF;" parent="1" source="qhe81xx8y5uv3vRhweT2-5" target="qhe81xx8y5uv3vRhweT2-4" edge="1">
          <mxGeometry relative="1" as="geometry" />
        </mxCell>
        <mxCell id="qhe81xx8y5uv3vRhweT2-59" value="Total Funds" style="edgeLabel;html=1;align=center;verticalAlign=middle;resizable=0;points=[];fontSize=14;fontColor=#007FFF;" parent="qhe81xx8y5uv3vRhweT2-58" vertex="1" connectable="0">
          <mxGeometry x="-0.0033" relative="1" as="geometry">
            <mxPoint y="-1" as="offset" />
          </mxGeometry>
        </mxCell>
        <mxCell id="qhe81xx8y5uv3vRhweT2-5" value="10. View Funds" style="html=1;dashed=0;whiteSpace=wrap;rounded=1;fontSize=14;fillColor=#dae8fc;strokeColor=#6c8ebf;" parent="1" vertex="1">
          <mxGeometry x="670" y="980" width="100" height="50" as="geometry" />
        </mxCell>
        <mxCell id="qhe81xx8y5uv3vRhweT2-51" style="edgeStyle=orthogonalEdgeStyle;rounded=0;orthogonalLoop=1;jettySize=auto;html=1;exitX=0.5;exitY=0;exitDx=0;exitDy=0;entryX=0.5;entryY=1;entryDx=0;entryDy=0;startArrow=classic;startFill=1;endArrow=none;endFill=0;fontSize=14;fontColor=#007FFF;" parent="1" source="qhe81xx8y5uv3vRhweT2-6" target="qhe81xx8y5uv3vRhweT2-48" edge="1">
          <mxGeometry relative="1" as="geometry" />
        </mxCell>
        <mxCell id="qhe81xx8y5uv3vRhweT2-61" style="edgeStyle=orthogonalEdgeStyle;rounded=0;orthogonalLoop=1;jettySize=auto;html=1;exitX=0;exitY=0.5;exitDx=0;exitDy=0;entryX=1;entryY=0.5;entryDx=0;entryDy=0;fontSize=14;fontColor=#007FFF;" parent="1" source="qhe81xx8y5uv3vRhweT2-6" target="qhe81xx8y5uv3vRhweT2-2" edge="1">
          <mxGeometry relative="1" as="geometry" />
        </mxCell>
        <mxCell id="qhe81xx8y5uv3vRhweT2-6" value="9. Update Funds" style="html=1;dashed=0;whiteSpace=wrap;rounded=1;fontSize=14;fillColor=#dae8fc;strokeColor=#6c8ebf;" parent="1" vertex="1">
          <mxGeometry x="670" y="860" width="100" height="50" as="geometry" />
        </mxCell>
        <mxCell id="qhe81xx8y5uv3vRhweT2-30" style="edgeStyle=orthogonalEdgeStyle;rounded=0;orthogonalLoop=1;jettySize=auto;html=1;exitX=0;exitY=0.5;exitDx=0;exitDy=0;entryX=1;entryY=0.5;entryDx=0;entryDy=0;fontSize=14;fontColor=#007FFF;" parent="1" source="qhe81xx8y5uv3vRhweT2-7" target="ym1fQNykqVUtooWXVhN--10" edge="1">
          <mxGeometry relative="1" as="geometry" />
        </mxCell>
        <mxCell id="qhe81xx8y5uv3vRhweT2-31" value="Approve/ Reject" style="edgeLabel;html=1;align=center;verticalAlign=middle;resizable=0;points=[];fontSize=14;fontColor=#007FFF;" parent="qhe81xx8y5uv3vRhweT2-30" vertex="1" connectable="0">
          <mxGeometry x="-0.0322" y="-4" relative="1" as="geometry">
            <mxPoint as="offset" />
          </mxGeometry>
        </mxCell>
        <mxCell id="qhe81xx8y5uv3vRhweT2-33" style="edgeStyle=orthogonalEdgeStyle;rounded=0;orthogonalLoop=1;jettySize=auto;html=1;exitX=0.75;exitY=0;exitDx=0;exitDy=0;entryX=0.5;entryY=1;entryDx=0;entryDy=0;fontSize=14;fontColor=#007FFF;" parent="1" source="qhe81xx8y5uv3vRhweT2-7" target="qhe81xx8y5uv3vRhweT2-9" edge="1">
          <mxGeometry relative="1" as="geometry" />
        </mxCell>
        <mxCell id="qhe81xx8y5uv3vRhweT2-7" value="Admin" style="html=1;dashed=0;whiteSpace=wrap;fontSize=14;fillColor=#e1d5e7;strokeColor=#9673a6;" parent="1" vertex="1">
          <mxGeometry x="680" y="480" width="100" height="50" as="geometry" />
        </mxCell>
        <mxCell id="qhe81xx8y5uv3vRhweT2-32" style="edgeStyle=orthogonalEdgeStyle;rounded=0;orthogonalLoop=1;jettySize=auto;html=1;exitX=0.75;exitY=1;exitDx=0;exitDy=0;entryX=0.5;entryY=0;entryDx=0;entryDy=0;fontSize=14;fontColor=#007FFF;" parent="1" source="qhe81xx8y5uv3vRhweT2-8" target="qhe81xx8y5uv3vRhweT2-7" edge="1">
          <mxGeometry relative="1" as="geometry" />
        </mxCell>
        <mxCell id="qhe81xx8y5uv3vRhweT2-8" value="11. View User Info" style="html=1;dashed=0;whiteSpace=wrap;rounded=1;fontSize=14;fillColor=#dae8fc;strokeColor=#6c8ebf;" parent="1" vertex="1">
          <mxGeometry x="600" y="260" width="100" height="50" as="geometry" />
        </mxCell>
        <mxCell id="qhe81xx8y5uv3vRhweT2-37" style="edgeStyle=orthogonalEdgeStyle;rounded=0;orthogonalLoop=1;jettySize=auto;html=1;exitX=0.5;exitY=0;exitDx=0;exitDy=0;entryX=0.75;entryY=1;entryDx=0;entryDy=0;fontSize=14;fontColor=#007FFF;" parent="1" source="qhe81xx8y5uv3vRhweT2-9" target="ym1fQNykqVUtooWXVhN--3" edge="1">
          <mxGeometry relative="1" as="geometry" />
        </mxCell>
        <mxCell id="qhe81xx8y5uv3vRhweT2-38" value="Update" style="edgeLabel;html=1;align=center;verticalAlign=middle;resizable=0;points=[];fontSize=14;fontColor=#007FFF;" parent="qhe81xx8y5uv3vRhweT2-37" vertex="1" connectable="0">
          <mxGeometry x="0.0032" y="2" relative="1" as="geometry">
            <mxPoint as="offset" />
          </mxGeometry>
        </mxCell>
        <mxCell id="qhe81xx8y5uv3vRhweT2-9" value="12. Delete user" style="html=1;dashed=0;whiteSpace=wrap;rounded=1;fontSize=14;fillColor=#dae8fc;strokeColor=#6c8ebf;" parent="1" vertex="1">
          <mxGeometry x="740" y="260" width="100" height="50" as="geometry" />
        </mxCell>
        <mxCell id="qhe81xx8y5uv3vRhweT2-48" value="Fund Record" style="html=1;dashed=0;whiteSpace=wrap;shape=partialRectangle;right=0;fontSize=14;fontColor=#333333;fillColor=#f5f5f5;strokeColor=#666666;" parent="1" vertex="1">
          <mxGeometry x="670" y="760" width="100" height="30" as="geometry" />
        </mxCell>
        <mxCell id="qhe81xx8y5uv3vRhweT2-56" style="edgeStyle=orthogonalEdgeStyle;rounded=0;orthogonalLoop=1;jettySize=auto;html=1;exitX=0.75;exitY=1;exitDx=0;exitDy=0;entryX=0.5;entryY=0;entryDx=0;entryDy=0;fontSize=14;fontColor=#007FFF;" parent="1" source="qhe81xx8y5uv3vRhweT2-55" target="qhe81xx8y5uv3vRhweT2-48" edge="1">
          <mxGeometry relative="1" as="geometry" />
        </mxCell>
        <mxCell id="qhe81xx8y5uv3vRhweT2-55" value="Payment Gateway" style="html=1;dashed=0;whiteSpace=wrap;rounded=1;fontSize=14;fillColor=#dae8fc;strokeColor=#6c8ebf;" parent="1" vertex="1">
          <mxGeometry x="570" y="630" width="100" height="50" as="geometry" />
        </mxCell>
      </root>
    </mxGraphModel>
  </diagram>
</mxfile>
